<svg xmlns="http://www.w3.org/2000/svg" viewBox="0 0 801.31 219.24"><defs><style>.cls-1{fill:#facc62;}</style></defs><g id="Calque_2" data-name="Calque 2"><g id="Calque_1-2" data-name="Calque 1"><path class="cls-1" d="M239.13,39.71A39.31,39.31,0,0,0,167.77,16.8,109.19,109.19,0,0,0,109.31,0C48.41,0,0,49,0,109.92S48.41,219.24,109.31,219.24s109.62-48.42,109.62-109.32a110.72,110.72,0,0,0-5.16-33.48A39,39,0,0,0,239.13,39.71ZM109.31,170.52a59.7,59.7,0,0,1-24.14-5.09,61,61,0,0,1-36.45-55.51c0-33.49,27.4-61.2,60.59-61.2,33.5,0,60.9,27.71,60.9,61.2a61,61,0,0,1-60.9,60.6Zm90.37-102.2a28.74,28.74,0,0,1-28.9-28.57,29.06,29.06,0,1,1,58.11,0C228.89,55.62,215.7,68.32,199.68,68.32Z"/><path class="cls-1" d="M133.69,165.4a60.35,60.35,0,0,1-24.38,5.12,59.7,59.7,0,0,1-24.14-5.09.49.49,0,0,0,0-.11,1.64,1.64,0,0,1,1.93-1.26c1.82.09,3.65.07,5.47,0a1.73,1.73,0,0,0,1.29-.73A4.47,4.47,0,0,1,98,160.44c1-.1,2-.28,3-.38,2.88-.28,4.18-1.54,4.46-4.44a11.91,11.91,0,0,0,0-2.6c-.42-3.31-1-6.6-1.38-9.92a60.29,60.29,0,0,1-.48-6.58c0-3,0-6-.86-9a34.43,34.43,0,0,1-1.45-12.74c.14-1.68.52-3.35.58-5a3,3,0,0,0-.8-2.25A5.22,5.22,0,0,1,98.62,104c-1.21-4.54-2.4-9.07-2-13.83a5.65,5.65,0,0,1,3.32-4.93c1-.47,2-.87,3-1.27a4.48,4.48,0,0,0,2.76-5.78,22.9,22.9,0,0,1-.68-6.66c.06-2,2.29-3.7,4.36-3.76s4.44,1.8,4.48,3.94a29.93,29.93,0,0,1-.72,6.66c-.6,2.81.07,4.46,2.76,5.62.44.18.89.34,1.33.51,4,1.57,5.18,3.35,5.08,7.62a46.51,46.51,0,0,1-2.54,13.11,2.75,2.75,0,0,1-1.21,1.61c-1.8.79-1.93,2.18-1.62,3.77a38.27,38.27,0,0,1-1.2,18.13,12,12,0,0,0-.54,3.69,57.77,57.77,0,0,1-1.19,14.6,38.14,38.14,0,0,0-.62,8.41c.06,3,1.43,4.24,4.41,4.59a21.83,21.83,0,0,1,3.72.57c.94.28,2.24.75,2.56,1.49.81,1.85,2.07,2.18,3.8,2,.6-.07,1.24.09,1.82,0C131.51,163.73,132.89,164.1,133.69,165.4Z"/><path class="cls-1" d="M301.26,90.72H258.8l25.74-66h30.8Z"/><path class="cls-1" d="M429.07,110.74a96.07,96.07,0,0,0-36.74-7.7q-10.11,0-14.19,2.31a7.49,7.49,0,0,0-4.07,6.93,8,8,0,0,0,3.63,6.93q3.63,2.54,12.87,3.85,25.74,3.3,36.85,12.54t11.11,25.52q0,16.27-12.65,25.74t-36.41,9.46q-27.93,0-50.6-11l6.6-25.52a81.68,81.68,0,0,0,41.14,10.78q16.72,0,16.72-10.12a7.48,7.48,0,0,0-3.19-6.6q-3.18-2.21-13.31-3.74-25.29-4-36.3-13.31t-11-25.19q0-15.62,12.65-24.86t37.29-9.24a133.16,133.16,0,0,1,46.2,8.14Z"/><path class="cls-1" d="M549.63,162.44l7.7,25.52a90.49,90.49,0,0,1-38.5,8.36q-29,0-46.2-15.95t-17.16-43.45q0-27.72,16.72-43.56t46.64-15.84a90.49,90.49,0,0,1,38.5,8.36l-7.7,26a56.09,56.09,0,0,0-28.82-8.14q-14.07,0-21.89,8.47t-7.81,24.75q0,15.62,8.25,24.64t21.45,9A56.09,56.09,0,0,0,549.63,162.44Z"/><path class="cls-1" d="M633.67,77.52q27.5,0,39.27,10.45t11.77,34.21v41.14a142.54,142.54,0,0,0,3.3,30.8H654.57a161.8,161.8,0,0,1-2.2-16.06h-.44A42,42,0,0,1,636,191.37a46.81,46.81,0,0,1-21,4.95q-16.5,0-26.4-9.24t-9.9-25.3q0-18.92,16.17-30.36T641.37,120h8.14v-.44q0-9.67-3.85-13.42t-13.53-3.74a97.3,97.3,0,0,0-42.9,9.9l-4.62-24.86Q606.82,77.52,633.67,77.52Zm-22.88,81q0,5.94,3.63,9.24t9.79,3.3q11,0,18.15-6.82a23,23,0,0,0,7.15-17.38v-5.28h-8.14q-15,0-22.77,4.62T610.79,158.48Z"/><path class="cls-1" d="M714.85,79.72h33.44l.22,22H749q19.14-24.19,52.36-24.2v28.16q-24.64,0-37.62,10.56t-13,28.82v49.06H714.85Z"/></g></g></svg>